<svg xmlns="http://www.w3.org/2000/svg" xmlns:xlink="http://www.w3.org/1999/xlink" width="1920" zoomAndPan="magnify" viewBox="0 0 1440 809.999993" height="1080" preserveAspectRatio="xMidYMid meet" version="1.0"><defs><clipPath id="a550ec2027"><path d="M 1162 146 L 1362 146 L 1362 346 L 1162 346 Z M 1162 146 " clip-rule="nonzero"/></clipPath><clipPath id="39f827f555"><path d="M 1404.179688 11.191406 L 1332.398438 353.238281 L 825.195312 246.792969 L 896.980469 -95.253906 Z M 1404.179688 11.191406 " clip-rule="nonzero"/></clipPath><clipPath id="1fa8a1eed8"><path d="M 1332.347656 353.480469 L 1404.128906 11.429688 L 896.929688 -95.011719 L 825.144531 247.035156 Z M 1332.347656 353.480469 " clip-rule="nonzero"/></clipPath><clipPath id="85d9bc0b57"><path d="M 1196 0 L 1397 0 L 1397 181 L 1196 181 Z M 1196 0 " clip-rule="nonzero"/></clipPath><clipPath id="070d0c98f7"><path d="M 1404.179688 11.191406 L 1332.398438 353.238281 L 825.195312 246.792969 L 896.980469 -95.253906 Z M 1404.179688 11.191406 " clip-rule="nonzero"/></clipPath><clipPath id="cd6d1e8ade"><path d="M 1332.347656 353.480469 L 1404.128906 11.429688 L 896.929688 -95.011719 L 825.144531 247.035156 Z M 1332.347656 353.480469 " clip-rule="nonzero"/></clipPath><clipPath id="b056fb3f31"><path d="M 1032 0 L 1232 0 L 1232 147 L 1032 147 Z M 1032 0 " clip-rule="nonzero"/></clipPath><clipPath id="1737b72eb5"><path d="M 1404.179688 11.191406 L 1332.398438 353.238281 L 825.195312 246.792969 L 896.980469 -95.253906 Z M 1404.179688 11.191406 " clip-rule="nonzero"/></clipPath><clipPath id="ddc7bd6cb2"><path d="M 1332.347656 353.480469 L 1404.128906 11.429688 L 896.929688 -95.011719 L 825.144531 247.035156 Z M 1332.347656 353.480469 " clip-rule="nonzero"/></clipPath><clipPath id="066769a621"><path d="M 867 0 L 1067 0 L 1067 112 L 867 112 Z M 867 0 " clip-rule="nonzero"/></clipPath><clipPath id="6ec44eacdb"><path d="M 1404.179688 11.191406 L 1332.398438 353.238281 L 825.195312 246.792969 L 896.980469 -95.253906 Z M 1404.179688 11.191406 " clip-rule="nonzero"/></clipPath><clipPath id="ac320e6d3b"><path d="M 1332.347656 353.480469 L 1404.128906 11.429688 L 896.929688 -95.011719 L 825.144531 247.035156 Z M 1332.347656 353.480469 " clip-rule="nonzero"/></clipPath><clipPath id="437a6ebb34"><path d="M 859 0 L 1405 0 L 1405 354 L 859 354 Z M 859 0 " clip-rule="nonzero"/></clipPath><clipPath id="da7a36beb6"><path d="M 1404.179688 11.191406 L 1332.398438 353.238281 L 825.195312 246.792969 L 896.980469 -95.253906 Z M 1404.179688 11.191406 " clip-rule="nonzero"/></clipPath><clipPath id="c1aea5650b"><path d="M 1332.347656 353.480469 L 1404.128906 11.429688 L 896.929688 -95.011719 L 825.144531 247.035156 Z M 1332.347656 353.480469 " clip-rule="nonzero"/></clipPath><clipPath id="32b5eb1701"><path d="M 271 0 L 460 0 L 460 101 L 271 101 Z M 271 0 " clip-rule="nonzero"/></clipPath><clipPath id="0b4eb0113d"><path d="M -24.675781 40.949219 L 419.144531 -95.246094 L 511.117188 204.460938 L 67.292969 340.65625 Z M -24.675781 40.949219 " clip-rule="nonzero"/></clipPath><clipPath id="27f3563be6"><path d="M 511.082031 204.507812 L 67.257812 340.703125 L -24.710938 40.996094 L 419.109375 -95.199219 Z M 511.082031 204.507812 " clip-rule="nonzero"/></clipPath><clipPath id="dfee16cd28"><path d="M 126 0 L 316 0 L 316 145 L 126 145 Z M 126 0 " clip-rule="nonzero"/></clipPath><clipPath id="a288f8b673"><path d="M -24.675781 40.949219 L 419.144531 -95.246094 L 511.117188 204.460938 L 67.292969 340.65625 Z M -24.675781 40.949219 " clip-rule="nonzero"/></clipPath><clipPath id="ae005c6cb2"><path d="M 511.082031 204.507812 L 67.257812 340.703125 L -24.710938 40.996094 L 419.109375 -95.199219 Z M 511.082031 204.507812 " clip-rule="nonzero"/></clipPath><clipPath id="77b76fac68"><path d="M 171 100 L 360 100 L 360 289 L 171 289 Z M 171 100 " clip-rule="nonzero"/></clipPath><clipPath id="f51c99143b"><path d="M -24.675781 40.949219 L 419.144531 -95.246094 L 511.117188 204.460938 L 67.292969 340.65625 Z M -24.675781 40.949219 " clip-rule="nonzero"/></clipPath><clipPath id="2b0b807b82"><path d="M 511.082031 204.507812 L 67.257812 340.703125 L -24.710938 40.996094 L 419.109375 -95.199219 Z M 511.082031 204.507812 " clip-rule="nonzero"/></clipPath><clipPath id="86b3003792"><path d="M 27 144 L 216 144 L 216 334 L 27 334 Z M 27 144 " clip-rule="nonzero"/></clipPath><clipPath id="bba8380b9c"><path d="M -24.675781 40.949219 L 419.144531 -95.246094 L 511.117188 204.460938 L 67.292969 340.65625 Z M -24.675781 40.949219 " clip-rule="nonzero"/></clipPath><clipPath id="8e62fdfe81"><path d="M 511.082031 204.507812 L 67.257812 340.703125 L -24.710938 40.996094 L 419.109375 -95.199219 Z M 511.082031 204.507812 " clip-rule="nonzero"/></clipPath><clipPath id="57b5052ac6"><path d="M 19 0 L 467 0 L 467 341 L 19 341 Z M 19 0 " clip-rule="nonzero"/></clipPath><clipPath id="9858f37508"><path d="M -24.675781 40.949219 L 419.144531 -95.246094 L 511.117188 204.460938 L 67.292969 340.65625 Z M -24.675781 40.949219 " clip-rule="nonzero"/></clipPath><clipPath id="fce6d9c879"><path d="M 511.082031 204.507812 L 67.257812 340.703125 L -24.710938 40.996094 L 419.109375 -95.199219 Z M 511.082031 204.507812 " clip-rule="nonzero"/></clipPath><clipPath id="39cac0b544"><path d="M 0 483 L 137 483 L 137 679 L 0 679 Z M 0 483 " clip-rule="nonzero"/></clipPath><clipPath id="288d922dcb"><path d="M 240.644531 429.191406 L 385.160156 882.199219 L 79.34375 979.757812 L -65.171875 526.75 Z M 240.644531 429.191406 " clip-rule="nonzero"/></clipPath><clipPath id="5951e626d8"><path d="M 240.644531 429.191406 L 385.160156 882.199219 L 79.34375 979.757812 L -65.171875 526.75 Z M 240.644531 429.191406 " clip-rule="nonzero"/></clipPath><clipPath id="8e6d17d151"><path d="M 0 631 L 184 631 L 184 810 L 0 810 Z M 0 631 " clip-rule="nonzero"/></clipPath><clipPath id="199a23d988"><path d="M 240.644531 429.191406 L 385.160156 882.199219 L 79.34375 979.757812 L -65.171875 526.75 Z M 240.644531 429.191406 " clip-rule="nonzero"/></clipPath><clipPath id="be6b1f68ee"><path d="M 240.644531 429.191406 L 385.160156 882.199219 L 79.34375 979.757812 L -65.171875 526.75 Z M 240.644531 429.191406 " clip-rule="nonzero"/></clipPath><clipPath id="80c2e535c2"><path d="M 36 778 L 231 778 L 231 810 L 36 810 Z M 36 778 " clip-rule="nonzero"/></clipPath><clipPath id="988091b5fd"><path d="M 240.644531 429.191406 L 385.160156 882.199219 L 79.34375 979.757812 L -65.171875 526.75 Z M 240.644531 429.191406 " clip-rule="nonzero"/></clipPath><clipPath id="1796109df1"><path d="M 240.644531 429.191406 L 385.160156 882.199219 L 79.34375 979.757812 L -65.171875 526.75 Z M 240.644531 429.191406 " clip-rule="nonzero"/></clipPath><clipPath id="5eb2e94086"><path d="M 136 584 L 331 584 L 331 779 L 136 779 Z M 136 584 " clip-rule="nonzero"/></clipPath><clipPath id="6d12dd0fcc"><path d="M 240.644531 429.191406 L 385.160156 882.199219 L 79.34375 979.757812 L -65.171875 526.75 Z M 240.644531 429.191406 " clip-rule="nonzero"/></clipPath><clipPath id="50ba16eb00"><path d="M 240.644531 429.191406 L 385.160156 882.199219 L 79.34375 979.757812 L -65.171875 526.75 Z M 240.644531 429.191406 " clip-rule="nonzero"/></clipPath><clipPath id="e60a80b433"><path d="M 0 476 L 339 476 L 339 810 L 0 810 Z M 0 476 " clip-rule="nonzero"/></clipPath><clipPath id="de49d92e89"><path d="M 240.644531 429.191406 L 385.160156 882.199219 L 79.34375 979.757812 L -65.171875 526.75 Z M 240.644531 429.191406 " clip-rule="nonzero"/></clipPath><clipPath id="e897cb799f"><path d="M 240.644531 429.191406 L 385.160156 882.199219 L 79.34375 979.757812 L -65.171875 526.75 Z M 240.644531 429.191406 " clip-rule="nonzero"/></clipPath><clipPath id="4d25b1fd50"><path d="M 587 616 L 754 616 L 754 783 L 587 783 Z M 587 616 " clip-rule="nonzero"/></clipPath><clipPath id="fa57da137d"><path d="M 617.296875 609.949219 L 892.730469 680.183594 L 822.5 955.621094 L 547.0625 885.386719 Z M 617.296875 609.949219 " clip-rule="nonzero"/></clipPath><clipPath id="1699a981c7"><path d="M 617.296875 609.949219 L 892.730469 680.183594 L 822.5 955.621094 L 547.0625 885.386719 Z M 617.296875 609.949219 " clip-rule="nonzero"/></clipPath><clipPath id="cd6cf4ec45"><path d="M 720 650 L 887 650 L 887 810 L 720 810 Z M 720 650 " clip-rule="nonzero"/></clipPath><clipPath id="0d1dd7b3c6"><path d="M 617.296875 609.949219 L 892.730469 680.183594 L 822.5 955.621094 L 547.0625 885.386719 Z M 617.296875 609.949219 " clip-rule="nonzero"/></clipPath><clipPath id="6b48684f8d"><path d="M 617.296875 609.949219 L 892.730469 680.183594 L 822.5 955.621094 L 547.0625 885.386719 Z M 617.296875 609.949219 " clip-rule="nonzero"/></clipPath><clipPath id="fa1b7f671b"><path d="M 553 749 L 720 749 L 720 810 L 553 810 Z M 553 749 " clip-rule="nonzero"/></clipPath><clipPath id="8844101e96"><path d="M 617.296875 609.949219 L 892.730469 680.183594 L 822.5 955.621094 L 547.0625 885.386719 Z M 617.296875 609.949219 " clip-rule="nonzero"/></clipPath><clipPath id="a500dc5031"><path d="M 617.296875 609.949219 L 892.730469 680.183594 L 822.5 955.621094 L 547.0625 885.386719 Z M 617.296875 609.949219 " clip-rule="nonzero"/></clipPath><clipPath id="ec14f5d1cf"><path d="M 686 782 L 853 782 L 853 810 L 686 810 Z M 686 782 " clip-rule="nonzero"/></clipPath><clipPath id="e7f21955eb"><path d="M 617.296875 609.949219 L 892.730469 680.183594 L 822.5 955.621094 L 547.0625 885.386719 Z M 617.296875 609.949219 " clip-rule="nonzero"/></clipPath><clipPath id="276a8c47c3"><path d="M 617.296875 609.949219 L 892.730469 680.183594 L 822.5 955.621094 L 547.0625 885.386719 Z M 617.296875 609.949219 " clip-rule="nonzero"/></clipPath><clipPath id="2d21756d2f"><path d="M 547 609 L 893 609 L 893 810 L 547 810 Z M 547 609 " clip-rule="nonzero"/></clipPath><clipPath id="57ea7b9dee"><path d="M 617.296875 609.949219 L 892.730469 680.183594 L 822.5 955.621094 L 547.0625 885.386719 Z M 617.296875 609.949219 " clip-rule="nonzero"/></clipPath><clipPath id="c759479b36"><path d="M 617.296875 609.949219 L 892.730469 680.183594 L 822.5 955.621094 L 547.0625 885.386719 Z M 617.296875 609.949219 " clip-rule="nonzero"/></clipPath><clipPath id="077664cad2"><path d="M 1392 413 L 1440 413 L 1440 627 L 1392 627 Z M 1392 413 " clip-rule="nonzero"/></clipPath><clipPath id="79559c15d9"><path d="M 1513.867188 405.003906 L 1614.464844 534.839844 L 1124.160156 914.726562 L 1023.5625 784.886719 Z M 1513.867188 405.003906 " clip-rule="nonzero"/></clipPath><clipPath id="d04c89de7c"><path d="M 1513.867188 405.003906 L 1614.464844 534.839844 L 1124.160156 914.726562 L 1023.5625 784.886719 Z M 1513.867188 405.003906 " clip-rule="nonzero"/></clipPath><clipPath id="f0c916ea26"><path d="M 1272 506 L 1440 506 L 1440 720 L 1272 720 Z M 1272 506 " clip-rule="nonzero"/></clipPath><clipPath id="b643ebfbfa"><path d="M 1513.867188 405.003906 L 1614.464844 534.839844 L 1124.160156 914.726562 L 1023.5625 784.886719 Z M 1513.867188 405.003906 " clip-rule="nonzero"/></clipPath><clipPath id="cbbe0f8551"><path d="M 1513.867188 405.003906 L 1614.464844 534.839844 L 1124.160156 914.726562 L 1023.5625 784.886719 Z M 1513.867188 405.003906 " clip-rule="nonzero"/></clipPath><clipPath id="e4274deb32"><path d="M 1152 599 L 1366 599 L 1366 810 L 1152 810 Z M 1152 599 " clip-rule="nonzero"/></clipPath><clipPath id="c35081be43"><path d="M 1513.867188 405.003906 L 1614.464844 534.839844 L 1124.160156 914.726562 L 1023.5625 784.886719 Z M 1513.867188 405.003906 " clip-rule="nonzero"/></clipPath><clipPath id="9f85cd200a"><path d="M 1513.867188 405.003906 L 1614.464844 534.839844 L 1124.160156 914.726562 L 1023.5625 784.886719 Z M 1513.867188 405.003906 " clip-rule="nonzero"/></clipPath><clipPath id="b423a69b38"><path d="M 1032 692 L 1246 692 L 1246 810 L 1032 810 Z M 1032 692 " clip-rule="nonzero"/></clipPath><clipPath id="afd16464f9"><path d="M 1513.867188 405.003906 L 1614.464844 534.839844 L 1124.160156 914.726562 L 1023.5625 784.886719 Z M 1513.867188 405.003906 " clip-rule="nonzero"/></clipPath><clipPath id="c0931ac7e7"><path d="M 1513.867188 405.003906 L 1614.464844 534.839844 L 1124.160156 914.726562 L 1023.5625 784.886719 Z M 1513.867188 405.003906 " clip-rule="nonzero"/></clipPath><clipPath id="5913ed6817"><path d="M 1023 405 L 1440 405 L 1440 810 L 1023 810 Z M 1023 405 " clip-rule="nonzero"/></clipPath><clipPath id="0114e79b7d"><path d="M 1513.867188 405.003906 L 1614.464844 534.839844 L 1124.160156 914.726562 L 1023.5625 784.886719 Z M 1513.867188 405.003906 " clip-rule="nonzero"/></clipPath><clipPath id="b44bb30e7b"><path d="M 1513.867188 405.003906 L 1614.464844 534.839844 L 1124.160156 914.726562 L 1023.5625 784.886719 Z M 1513.867188 405.003906 " clip-rule="nonzero"/></clipPath></defs><g clip-path="url(#a550ec2027)"><g clip-path="url(#39f827f555)"><g clip-path="url(#1fa8a1eed8)"><path fill="#d591e8" d="M 1327.023438 345.488281 L 1361.558594 180.925781 L 1196.996094 146.390625 L 1162.460938 310.953125 Z M 1327.023438 345.488281 " fill-opacity="1" fill-rule="nonzero"/></g></g></g><g clip-path="url(#85d9bc0b57)"><g clip-path="url(#070d0c98f7)"><g clip-path="url(#cd6d1e8ade)"><path fill="#d591e8" d="M 1361.558594 180.925781 L 1396.09375 16.363281 L 1231.53125 -18.171875 L 1196.996094 146.390625 Z M 1361.558594 180.925781 " fill-opacity="1" fill-rule="nonzero"/></g></g></g><g clip-path="url(#b056fb3f31)"><g clip-path="url(#1737b72eb5)"><g clip-path="url(#ddc7bd6cb2)"><path fill="#d591e8" d="M 1196.996094 146.390625 L 1231.53125 -18.171875 L 1066.96875 -52.707031 L 1032.433594 111.855469 Z M 1196.996094 146.390625 " fill-opacity="1" fill-rule="nonzero"/></g></g></g><g clip-path="url(#066769a621)"><g clip-path="url(#6ec44eacdb)"><g clip-path="url(#ac320e6d3b)"><path fill="#d591e8" d="M 1032.433594 111.855469 L 1066.96875 -52.707031 L 902.40625 -87.242188 L 867.871094 77.320312 Z M 1032.433594 111.855469 " fill-opacity="1" fill-rule="nonzero"/></g></g></g><g clip-path="url(#437a6ebb34)"><g clip-path="url(#da7a36beb6)"><g clip-path="url(#c1aea5650b)"><path fill="#000000" d="M 897.207031 -95.207031 L 859.90625 82.519531 L 1189.03125 151.589844 L 1154.496094 316.152344 L 1332.222656 353.453125 L 1404.058594 11.164062 Z M 875.835938 72.117188 L 907.609375 -79.28125 L 1059.003906 -47.507812 L 1027.230469 103.890625 Z M 1223.566406 -12.96875 L 1191.792969 138.425781 L 1040.398438 106.652344 L 1072.171875 -44.742188 Z M 1388.128906 21.566406 L 1356.355469 172.960938 L 1204.960938 141.191406 L 1236.734375 -10.207031 Z M 1170.421875 305.75 L 1202.195312 154.355469 L 1353.59375 186.128906 L 1321.820312 337.523438 Z M 1170.421875 305.75 " fill-opacity="1" fill-rule="nonzero"/></g></g></g><g clip-path="url(#32b5eb1701)"><g clip-path="url(#0b4eb0113d)"><g clip-path="url(#27f3563be6)"><path fill="#f684af" d="M 459.328125 56.40625 L 315.242188 100.621094 L 271.027344 -43.460938 L 415.113281 -87.675781 Z M 459.328125 56.40625 " fill-opacity="1" fill-rule="nonzero"/></g></g></g><g clip-path="url(#dfee16cd28)"><g clip-path="url(#a288f8b673)"><g clip-path="url(#ae005c6cb2)"><path fill="#f684af" d="M 315.242188 100.621094 L 171.160156 144.835938 L 126.945312 0.753906 L 271.027344 -43.460938 Z M 315.242188 100.621094 " fill-opacity="1" fill-rule="nonzero"/></g></g></g><g clip-path="url(#77b76fac68)"><g clip-path="url(#f51c99143b)"><g clip-path="url(#2b0b807b82)"><path fill="#f684af" d="M 359.460938 244.707031 L 215.375 288.921875 L 171.160156 144.835938 L 315.242188 100.621094 Z M 359.460938 244.707031 " fill-opacity="1" fill-rule="nonzero"/></g></g></g><g clip-path="url(#86b3003792)"><g clip-path="url(#bba8380b9c)"><g clip-path="url(#8e62fdfe81)"><path fill="#f684af" d="M 215.375 288.921875 L 71.292969 333.136719 L 27.078125 189.050781 L 171.160156 144.835938 Z M 215.375 288.921875 " fill-opacity="1" fill-rule="nonzero"/></g></g></g><g clip-path="url(#57b5052ac6)"><g clip-path="url(#9858f37508)"><g clip-path="url(#fce6d9c879)"><path fill="#000000" d="M 67.296875 340.667969 L 19.542969 185.058594 L 163.628906 140.84375 L 119.414062 -3.242188 L 419.109375 -95.207031 L 466.859375 60.402344 L 322.777344 104.617188 L 366.992188 248.699219 Z M 34.609375 193.046875 L 75.285156 325.605469 L 207.84375 284.925781 L 167.164062 152.367188 Z M 219.371094 281.386719 L 351.925781 240.710938 L 311.25 108.152344 L 178.691406 148.832031 Z M 134.476562 4.746094 L 175.15625 137.304688 L 307.710938 96.628906 L 267.035156 -35.929688 Z M 411.117188 -80.144531 L 278.5625 -39.46875 L 319.238281 93.089844 L 451.796875 52.410156 Z M 411.117188 -80.144531 " fill-opacity="1" fill-rule="nonzero"/></g></g></g><g clip-path="url(#39cac0b544)"><g clip-path="url(#288d922dcb)"><g clip-path="url(#5951e626d8)"><path fill="#86dba3" d="M 89.441406 483.914062 L 136.390625 631.085938 L -10.78125 678.035156 L -57.726562 530.863281 Z M 89.441406 483.914062 " fill-opacity="1" fill-rule="nonzero"/></g></g></g><g clip-path="url(#8e6d17d151)"><g clip-path="url(#199a23d988)"><g clip-path="url(#be6b1f68ee)"><path fill="#86dba3" d="M 136.390625 631.085938 L 183.339844 778.253906 L 36.167969 825.203125 L -10.78125 678.035156 Z M 136.390625 631.085938 " fill-opacity="1" fill-rule="nonzero"/></g></g></g><g clip-path="url(#80c2e535c2)"><g clip-path="url(#988091b5fd)"><g clip-path="url(#1796109df1)"><path fill="#86dba3" d="M 183.339844 778.253906 L 230.289062 925.425781 L 83.117188 972.375 L 36.167969 825.203125 Z M 183.339844 778.253906 " fill-opacity="1" fill-rule="nonzero"/></g></g></g><g clip-path="url(#5eb2e94086)"><g clip-path="url(#6d12dd0fcc)"><g clip-path="url(#50ba16eb00)"><path fill="#86dba3" d="M 283.5625 584.136719 L 330.511719 731.308594 L 183.339844 778.253906 L 136.390625 631.085938 Z M 283.5625 584.136719 " fill-opacity="1" fill-rule="nonzero"/></g></g></g><g clip-path="url(#e60a80b433)"><g clip-path="url(#de49d92e89)"><g clip-path="url(#e897cb799f)"><path fill="#000000" d="M 338.277344 735.316406 L 191.105469 782.265625 L 238.054688 929.4375 L 79.109375 980.140625 L -65.492188 526.855469 L 93.453125 476.148438 L 140.402344 623.320312 L 287.570312 576.371094 Z M 322.746094 727.296875 L 279.554688 591.902344 L 144.15625 635.09375 L 187.347656 770.492188 Z M 87.128906 964.609375 L 222.523438 921.417969 L 179.332031 786.019531 L 43.933594 829.214844 Z M 40.179688 817.441406 L 175.574219 774.246094 L 132.382812 638.847656 L -3.015625 682.042969 Z M -49.964844 534.871094 L -6.769531 670.269531 L 128.625 627.074219 L 85.433594 491.679688 Z M -49.964844 534.871094 " fill-opacity="1" fill-rule="nonzero"/></g></g></g><g clip-path="url(#4d25b1fd50)"><g clip-path="url(#fa57da137d)"><g clip-path="url(#1699a981c7)"><path fill="#9aabff" d="M 621.246094 616.605469 L 753.796875 650.402344 L 720 782.957031 L 587.445312 749.15625 Z M 621.246094 616.605469 " fill-opacity="1" fill-rule="nonzero"/></g></g></g><g clip-path="url(#cd6cf4ec45)"><g clip-path="url(#0d1dd7b3c6)"><g clip-path="url(#6b48684f8d)"><path fill="#9aabff" d="M 753.796875 650.402344 L 886.351562 684.203125 L 852.550781 816.753906 L 720 782.957031 Z M 753.796875 650.402344 " fill-opacity="1" fill-rule="nonzero"/></g></g></g><g clip-path="url(#fa1b7f671b)"><g clip-path="url(#8844101e96)"><g clip-path="url(#a500dc5031)"><path fill="#9aabff" d="M 587.445312 749.15625 L 720 782.957031 L 686.199219 915.507812 L 553.648438 881.710938 Z M 587.445312 749.15625 " fill-opacity="1" fill-rule="nonzero"/></g></g></g><g clip-path="url(#ec14f5d1cf)"><g clip-path="url(#e7f21955eb)"><g clip-path="url(#276a8c47c3)"><path fill="#9aabff" d="M 720 782.957031 L 852.550781 816.753906 L 818.753906 949.308594 L 686.199219 915.507812 Z M 720 782.957031 " fill-opacity="1" fill-rule="nonzero"/></g></g></g><g clip-path="url(#2d21756d2f)"><g clip-path="url(#57ea7b9dee)"><g clip-path="url(#c759479b36)"><path fill="#000000" d="M 822.703125 955.960938 L 546.992188 885.660156 L 617.296875 609.949219 L 893.003906 680.253906 Z M 814.800781 942.652344 L 845.898438 820.707031 L 723.949219 789.609375 L 692.855469 911.558594 Z M 560.300781 877.761719 L 682.25 908.855469 L 713.34375 786.90625 L 591.398438 755.8125 Z M 879.695312 688.152344 L 757.75 657.058594 L 726.652344 779.007812 L 848.601562 810.101562 Z M 625.195312 623.257812 L 594.101562 745.207031 L 716.050781 776.300781 L 747.144531 654.355469 Z M 625.195312 623.257812 " fill-opacity="1" fill-rule="nonzero"/></g></g></g><g clip-path="url(#077664cad2)"><g clip-path="url(#79559c15d9)"><g clip-path="url(#d04c89de7c)"><path fill="#ffe57e" d="M 1512.660156 413.628906 L 1605.730469 533.753906 L 1485.605469 626.828125 L 1392.53125 506.703125 Z M 1512.660156 413.628906 " fill-opacity="1" fill-rule="nonzero"/></g></g></g><g clip-path="url(#f0c916ea26)"><g clip-path="url(#b643ebfbfa)"><g clip-path="url(#cbbe0f8551)"><path fill="#ffe57e" d="M 1392.53125 506.703125 L 1485.605469 626.828125 L 1365.480469 719.902344 L 1272.40625 599.773438 Z M 1392.53125 506.703125 " fill-opacity="1" fill-rule="nonzero"/></g></g></g><g clip-path="url(#e4274deb32)"><g clip-path="url(#c35081be43)"><g clip-path="url(#9f85cd200a)"><path fill="#ffe57e" d="M 1272.40625 599.773438 L 1365.480469 719.902344 L 1245.351562 812.976562 L 1152.277344 692.847656 Z M 1272.40625 599.773438 " fill-opacity="1" fill-rule="nonzero"/></g></g></g><g clip-path="url(#b423a69b38)"><g clip-path="url(#afd16464f9)"><g clip-path="url(#c0931ac7e7)"><path fill="#ffe57e" d="M 1152.277344 692.847656 L 1245.351562 812.976562 L 1125.226562 906.046875 L 1032.152344 785.921875 Z M 1152.277344 692.847656 " fill-opacity="1" fill-rule="nonzero"/></g></g></g><g clip-path="url(#5913ed6817)"><g clip-path="url(#0114e79b7d)"><g clip-path="url(#b44bb30e7b)"><path fill="#000000" d="M 1124.144531 914.578125 L 1023.625 784.839844 L 1513.742188 405.101562 L 1614.261719 534.835938 Z M 1040.679688 787.003906 L 1126.308594 897.519531 L 1236.824219 811.894531 L 1151.195312 701.375 Z M 1160.808594 693.929688 L 1246.433594 804.445312 L 1356.949219 718.820312 L 1271.324219 608.304688 Z M 1280.933594 600.855469 L 1366.5625 711.375 L 1477.078125 625.746094 L 1391.449219 515.230469 Z M 1597.203125 532.671875 L 1511.578125 422.15625 L 1401.058594 507.785156 L 1486.6875 618.300781 Z M 1597.203125 532.671875 " fill-opacity="1" fill-rule="nonzero"/></g></g></g></svg>